<svg width="25" height="21" viewBox="0 0 25 21" fill="none" xmlns="http://www.w3.org/2000/svg">
<path d="M22.8049 19.7486C21.6764 20.3128 20.1718 19.9367 19.4194 18.8082L17.3505 16.175H7.19413L5.12523 18.8082C4.18482 20.1247 2.49208 20.3128 1.17551 19.3724C0.235102 18.6201 -0.141061 17.4916 0.0470204 16.5512L1.36359 9.59217C1.73976 7.33519 3.80866 5.64245 6.06564 5.64245H11.3319V2.82123C11.3319 1.31657 12.4604 0 13.9651 0H19.7956C20.3598 0 20.736 0.376163 20.736 0.940409C20.736 1.50465 20.3598 1.88082 19.7956 1.88082H14.1532C13.5889 1.88082 13.2127 2.25698 13.2127 2.63314V5.64245H18.479C20.736 5.64245 22.8049 7.33519 23.1811 9.59217L24.4976 16.5512C24.6857 17.8678 24.1215 19.1843 22.8049 19.7486ZM9.45111 10.3445C9.45111 8.83984 8.13454 7.52327 6.62988 7.52327C5.12523 7.52327 3.80866 8.83984 3.80866 10.3445C3.80866 11.8491 5.12523 13.1657 6.62988 13.1657C8.13454 13.1657 9.45111 11.8491 9.45111 10.3445ZM20.736 10.3445C20.736 9.78025 20.3598 9.40409 19.7956 9.40409H18.8552V8.46368C18.8552 7.89943 18.479 7.52327 17.9148 7.52327C17.3505 7.52327 16.9744 7.89943 16.9744 8.46368V9.40409H16.034C15.4697 9.40409 15.0936 9.78025 15.0936 10.3445C15.0936 10.9087 15.4697 11.2849 16.034 11.2849H16.9744V12.2253C16.9744 12.7896 17.3505 13.1657 17.9148 13.1657C18.479 13.1657 18.8552 12.7896 18.8552 12.2253V11.2849H19.7956C20.3598 11.2849 20.736 10.9087 20.736 10.3445Z" fill="#49FFC8"/>
</svg>
